<?xml version="1.0" encoding="UTF-8" standalone="no"?>
<!DOCTYPE svg PUBLIC "-//W3C//DTD SVG 1.1//EN"
 "http://www.w3.org/Graphics/SVG/1.1/DTD/svg11.dtd">
<!-- Generated by graphviz version 2.43.0 (0)
 -->
<!-- Title: G Pages: 1 -->
<svg width="2420pt" height="503pt"
 viewBox="0.00 0.00 2419.90 503.00" xmlns="http://www.w3.org/2000/svg" xmlns:xlink="http://www.w3.org/1999/xlink">
<g id="graph0" class="graph" transform="scale(1 1) rotate(0) translate(4 499)">
<title>G</title>
<polygon fill="white" stroke="transparent" points="-4,4 -4,-499 2415.9,-499 2415.9,4 -4,4"/>
<!-- Programmation Orientée Objet avec Java -->
<g id="node1" class="node">
<title>Programmation Orientée Objet avec Java</title>
<ellipse fill="none" stroke="black" cx="201.48" cy="-315" rx="201.46" ry="18"/>
<text text-anchor="middle" x="201.48" y="-311.3" font-family="Times,serif" font-size="14.00">Programmation Orientée Objet avec Java</text>
</g>
<!-- Etienne Duris -->
<g id="node2" class="node">
<title>Etienne Duris</title>
<ellipse fill="none" stroke="black" cx="615.75" cy="-369" rx="75.29" ry="18"/>
<text text-anchor="middle" x="615.75" y="-365.3" font-family="Times,serif" font-size="14.00">Etienne Duris</text>
</g>
<!-- Programmation Orientée Objet avec Java&#45;&gt;Etienne Duris -->
<g id="edge1" class="edge">
<title>Programmation Orientée Objet avec Java&#45;&gt;Etienne Duris</title>
<path fill="none" stroke="black" d="M315.95,-329.86C386.96,-339.16 476.5,-350.89 538.96,-359.07"/>
<polygon fill="black" stroke="black" points="538.76,-362.58 549.13,-360.41 539.67,-355.64 538.76,-362.58"/>
</g>
<!-- Bibliographie et sources -->
<g id="node3" class="node">
<title>Bibliographie et sources</title>
<ellipse fill="none" stroke="black" cx="615.75" cy="-315" rx="124.28" ry="18"/>
<text text-anchor="middle" x="615.75" y="-311.3" font-family="Times,serif" font-size="14.00">Bibliographie et sources</text>
</g>
<!-- Programmation Orientée Objet avec Java&#45;&gt;Bibliographie et sources -->
<g id="edge2" class="edge">
<title>Programmation Orientée Objet avec Java&#45;&gt;Bibliographie et sources</title>
<path fill="none" stroke="black" d="M403.18,-315C429.64,-315 456.21,-315 481.17,-315"/>
<polygon fill="black" stroke="black" points="481.38,-318.5 491.38,-315 481.38,-311.5 481.38,-318.5"/>
</g>
<!-- Différents styles de programmation -->
<g id="node10" class="node">
<title>Différents styles de programmation</title>
<ellipse fill="none" stroke="black" cx="615.75" cy="-126" rx="176.57" ry="18"/>
<text text-anchor="middle" x="615.75" y="-122.3" font-family="Times,serif" font-size="14.00">Différents styles de programmation</text>
</g>
<!-- Programmation Orientée Objet avec Java&#45;&gt;Différents styles de programmation -->
<g id="edge9" class="edge">
<title>Programmation Orientée Objet avec Java&#45;&gt;Différents styles de programmation</title>
<path fill="none" stroke="black" d="M241.27,-297.22C317.12,-262.45 484.87,-185.54 567.23,-147.78"/>
<polygon fill="black" stroke="black" points="568.74,-150.94 576.37,-143.6 565.82,-144.58 568.74,-150.94"/>
</g>
<!-- Les cours de Rémi Forax -->
<g id="node4" class="node">
<title>Les cours de Rémi Forax</title>
<ellipse fill="none" stroke="black" cx="1073.56" cy="-477" rx="125.38" ry="18"/>
<text text-anchor="middle" x="1073.56" y="-473.3" font-family="Times,serif" font-size="14.00">Les cours de Rémi Forax</text>
</g>
<!-- Bibliographie et sources&#45;&gt;Les cours de Rémi Forax -->
<g id="edge3" class="edge">
<title>Bibliographie et sources&#45;&gt;Les cours de Rémi Forax</title>
<path fill="none" stroke="black" d="M739.58,-316.28C758.89,-321.2 777.43,-329.26 792.53,-342 831.21,-374.62 789.18,-418.2 828.53,-450 867.92,-481.83 923.3,-489.93 971.35,-489.47"/>
<polygon fill="black" stroke="black" points="971.57,-492.97 981.49,-489.25 971.41,-485.97 971.57,-492.97"/>
</g>
<!-- Le cours de Marie&#45;Pierre Béal -->
<g id="node5" class="node">
<title>Le cours de Marie&#45;Pierre Béal</title>
<ellipse fill="none" stroke="black" cx="1073.56" cy="-423" rx="149.47" ry="18"/>
<text text-anchor="middle" x="1073.56" y="-419.3" font-family="Times,serif" font-size="14.00">Le cours de Marie&#45;Pierre Béal</text>
</g>
<!-- Bibliographie et sources&#45;&gt;Le cours de Marie&#45;Pierre Béal -->
<g id="edge4" class="edge">
<title>Bibliographie et sources&#45;&gt;Le cours de Marie&#45;Pierre Béal</title>
<path fill="none" stroke="black" d="M736.03,-319.64C755.95,-324.16 775.61,-331.21 792.53,-342 816.85,-357.51 803.89,-381.01 828.53,-396 855.56,-412.44 887.43,-421.62 919.06,-426.36"/>
<polygon fill="black" stroke="black" points="918.93,-429.88 929.31,-427.75 919.87,-422.94 918.93,-429.88"/>
</g>
<!-- Java et Internet -->
<g id="node6" class="node">
<title>Java et Internet</title>
<ellipse fill="none" stroke="black" cx="1073.56" cy="-369" rx="83.39" ry="18"/>
<text text-anchor="middle" x="1073.56" y="-365.3" font-family="Times,serif" font-size="14.00">Java et Internet</text>
</g>
<!-- Bibliographie et sources&#45;&gt;Java et Internet -->
<g id="edge5" class="edge">
<title>Bibliographie et sources&#45;&gt;Java et Internet</title>
<path fill="none" stroke="black" d="M708.44,-327.03C745.69,-331.83 789.15,-337.31 828.53,-342 881.67,-348.33 941.37,-354.94 988.43,-360.04"/>
<polygon fill="black" stroke="black" points="988.25,-363.54 998.57,-361.14 989.01,-356.58 988.25,-363.54"/>
</g>
<!-- Documentations Java Oracle -->
<g id="node7" class="node">
<title>Documentations Java Oracle</title>
<ellipse fill="none" stroke="black" cx="1073.56" cy="-315" rx="141.88" ry="18"/>
<text text-anchor="middle" x="1073.56" y="-311.3" font-family="Times,serif" font-size="14.00">Documentations Java Oracle</text>
</g>
<!-- Bibliographie et sources&#45;&gt;Documentations Java Oracle -->
<g id="edge6" class="edge">
<title>Bibliographie et sources&#45;&gt;Documentations Java Oracle</title>
<path fill="none" stroke="black" d="M740.1,-315C796.05,-315 862.74,-315 921.65,-315"/>
<polygon fill="black" stroke="black" points="921.79,-318.5 931.79,-315 921.79,-311.5 921.79,-318.5"/>
</g>
<!-- The Java Language Specification, Third Edition -->
<g id="node8" class="node">
<title>The Java Language Specification, Third Edition</title>
<ellipse fill="none" stroke="black" cx="1073.56" cy="-261" rx="228.26" ry="18"/>
<text text-anchor="middle" x="1073.56" y="-257.3" font-family="Times,serif" font-size="14.00">The Java Language Specification, Third Edition</text>
</g>
<!-- Bibliographie et sources&#45;&gt;The Java Language Specification, Third Edition -->
<g id="edge7" class="edge">
<title>Bibliographie et sources&#45;&gt;The Java Language Specification, Third Edition</title>
<path fill="none" stroke="black" d="M708.44,-302.97C745.69,-298.17 789.15,-292.69 828.53,-288 860.66,-284.18 895.18,-280.25 927.86,-276.61"/>
<polygon fill="black" stroke="black" points="928.39,-280.07 937.94,-275.49 927.62,-273.11 928.39,-280.07"/>
</g>
<!-- The Java Virtual Machine Specification, Second Ed -->
<g id="node9" class="node">
<title>The Java Virtual Machine Specification, Second Ed</title>
<ellipse fill="none" stroke="black" cx="1073.56" cy="-207" rx="245.06" ry="18"/>
<text text-anchor="middle" x="1073.56" y="-203.3" font-family="Times,serif" font-size="14.00">The Java Virtual Machine Specification, Second Ed</text>
</g>
<!-- Bibliographie et sources&#45;&gt;The Java Virtual Machine Specification, Second Ed -->
<g id="edge8" class="edge">
<title>Bibliographie et sources&#45;&gt;The Java Virtual Machine Specification, Second Ed</title>
<path fill="none" stroke="black" d="M653.32,-297.71C694.83,-278.88 765.02,-249.39 828.53,-234 849.37,-228.95 871.44,-224.84 893.45,-221.5"/>
<polygon fill="black" stroke="black" points="894.17,-224.93 903.55,-220.02 893.15,-218.01 894.17,-224.93"/>
</g>
<!-- Style applicatif -->
<g id="node11" class="node">
<title>Style applicatif</title>
<ellipse fill="none" stroke="black" cx="1073.56" cy="-153" rx="81.49" ry="18"/>
<text text-anchor="middle" x="1073.56" y="-149.3" font-family="Times,serif" font-size="14.00">Style applicatif</text>
</g>
<!-- Différents styles de programmation&#45;&gt;Style applicatif -->
<g id="edge10" class="edge">
<title>Différents styles de programmation&#45;&gt;Style applicatif</title>
<path fill="none" stroke="black" d="M768.84,-135.01C840.58,-139.26 923.62,-144.18 984.72,-147.8"/>
<polygon fill="black" stroke="black" points="984.52,-151.29 994.71,-148.39 984.94,-144.3 984.52,-151.29"/>
</g>
<!-- Style impératif -->
<g id="node12" class="node">
<title>Style impératif</title>
<ellipse fill="none" stroke="black" cx="1073.56" cy="-99" rx="80.69" ry="18"/>
<text text-anchor="middle" x="1073.56" y="-95.3" font-family="Times,serif" font-size="14.00">Style impératif</text>
</g>
<!-- Différents styles de programmation&#45;&gt;Style impératif -->
<g id="edge11" class="edge">
<title>Différents styles de programmation&#45;&gt;Style impératif</title>
<path fill="none" stroke="black" d="M768.84,-116.99C840.82,-112.73 924.18,-107.79 985.34,-104.17"/>
<polygon fill="black" stroke="black" points="985.57,-107.66 995.35,-103.57 985.16,-100.67 985.57,-107.66"/>
</g>
<!-- Style objet -->
<g id="node13" class="node">
<title>Style objet</title>
<ellipse fill="none" stroke="black" cx="1073.56" cy="-45" rx="61.19" ry="18"/>
<text text-anchor="middle" x="1073.56" y="-41.3" font-family="Times,serif" font-size="14.00">Style objet</text>
</g>
<!-- Différents styles de programmation&#45;&gt;Style objet -->
<g id="edge12" class="edge">
<title>Différents styles de programmation&#45;&gt;Style objet</title>
<path fill="none" stroke="black" d="M674.7,-108.9C716.99,-96.98 775.89,-81.57 828.53,-72 887.26,-61.32 954.76,-54.24 1003.86,-50.03"/>
<polygon fill="black" stroke="black" points="1004.38,-53.49 1014.05,-49.17 1003.79,-46.52 1004.38,-53.49"/>
</g>
<!-- Composants autonomes (objets) -->
<g id="node14" class="node">
<title>Composants autonomes (objets)</title>
<ellipse fill="none" stroke="black" cx="1513.83" cy="-72" rx="159.47" ry="18"/>
<text text-anchor="middle" x="1513.83" y="-68.3" font-family="Times,serif" font-size="14.00">Composants autonomes (objets)</text>
</g>
<!-- Style objet&#45;&gt;Composants autonomes (objets) -->
<g id="edge13" class="edge">
<title>Style objet&#45;&gt;Composants autonomes (objets)</title>
<path fill="none" stroke="black" d="M1133.67,-48.64C1192.37,-52.26 1284.77,-57.95 1363.65,-62.81"/>
<polygon fill="black" stroke="black" points="1363.5,-66.31 1373.69,-63.43 1363.93,-59.32 1363.5,-66.31"/>
</g>
<!-- Autres langages objet -->
<g id="node18" class="node">
<title>Autres langages objet</title>
<ellipse fill="none" stroke="black" cx="1513.83" cy="-18" rx="112.38" ry="18"/>
<text text-anchor="middle" x="1513.83" y="-14.3" font-family="Times,serif" font-size="14.00">Autres langages objet</text>
</g>
<!-- Style objet&#45;&gt;Autres langages objet -->
<g id="edge17" class="edge">
<title>Style objet&#45;&gt;Autres langages objet</title>
<path fill="none" stroke="black" d="M1133.67,-41.36C1201.25,-37.2 1313.48,-30.28 1398.34,-25.05"/>
<polygon fill="black" stroke="black" points="1398.78,-28.53 1408.55,-24.42 1398.35,-21.55 1398.78,-28.53"/>
</g>
<!-- Données modélisées par des classes -->
<g id="node15" class="node">
<title>Données modélisées par des classes</title>
<ellipse fill="none" stroke="black" cx="1887.8" cy="-72" rx="178.97" ry="18"/>
<text text-anchor="middle" x="1887.8" y="-68.3" font-family="Times,serif" font-size="14.00">Données modélisées par des classes</text>
</g>
<!-- Composants autonomes (objets)&#45;&gt;Données modélisées par des classes -->
<g id="edge14" class="edge">
<title>Composants autonomes (objets)&#45;&gt;Données modélisées par des classes</title>
<path fill="none" stroke="black" d="M1673.11,-72C1681.64,-72 1690.25,-72 1698.86,-72"/>
<polygon fill="black" stroke="black" points="1698.97,-75.5 1708.97,-72 1698.97,-68.5 1698.97,-75.5"/>
</g>
<!-- Actions définies par les classes -->
<g id="node16" class="node">
<title>Actions définies par les classes</title>
<ellipse fill="none" stroke="black" cx="2257.22" cy="-99" rx="154.87" ry="18"/>
<text text-anchor="middle" x="2257.22" y="-95.3" font-family="Times,serif" font-size="14.00">Actions définies par les classes</text>
</g>
<!-- Données modélisées par des classes&#45;&gt;Actions définies par les classes -->
<g id="edge15" class="edge">
<title>Données modélisées par des classes&#45;&gt;Actions définies par les classes</title>
<path fill="none" stroke="black" d="M2032.69,-82.57C2060.1,-84.59 2088.76,-86.69 2116.05,-88.7"/>
<polygon fill="black" stroke="black" points="2115.81,-92.19 2126.04,-89.43 2116.32,-85.21 2115.81,-92.19"/>
</g>
<!-- Messages ou méthodes -->
<g id="node17" class="node">
<title>Messages ou méthodes</title>
<ellipse fill="none" stroke="black" cx="2257.22" cy="-45" rx="118.88" ry="18"/>
<text text-anchor="middle" x="2257.22" y="-41.3" font-family="Times,serif" font-size="14.00">Messages ou méthodes</text>
</g>
<!-- Données modélisées par des classes&#45;&gt;Messages ou méthodes -->
<g id="edge16" class="edge">
<title>Données modélisées par des classes&#45;&gt;Messages ou méthodes</title>
<path fill="none" stroke="black" d="M2032.69,-61.43C2068.06,-58.83 2105.49,-56.08 2139.4,-53.58"/>
<polygon fill="black" stroke="black" points="2140.09,-57.04 2149.81,-52.82 2139.58,-50.06 2140.09,-57.04"/>
</g>
</g>
</svg>
